<svg xmlns="http://www.w3.org/2000/svg" viewBox="0 0 15 20"><defs><style>.cls-1{fill:#404040;}</style></defs><title>icon-open-template-light</title><g id="Layer_2" data-name="Layer 2"><g id="Layer_1-2" data-name="Layer 1"><g id="Layer_1-2-2" data-name="Layer 1-2"><g id="Layer_1-2-2-2" data-name="Layer 1-2-2"><path class="cls-1" d="M8.75,5.31V0H.92A.93.93,0,0,0,0,.93H0V19.06A.93.93,0,0,0,.92,20H14.06a.93.93,0,0,0,.94-.92h0V6.25H9.69A.94.94,0,0,1,8.75,5.31Zm2.43,3.58a.39.39,0,0,1-.39.39h-.15l-.87,8.13H5.22L4.35,9.29H4.21a.4.4,0,0,1-.34-.45h0a.39.39,0,0,1,.34-.33h6.58A.38.38,0,0,1,11.18,8.89ZM15,4.78V5H10V0h.23a1,1,0,0,1,.67.27L14.73,4.1A.92.92,0,0,1,15,4.78Z"/></g></g></g></g></svg>